<?xml version="1.0" standalone="no"?>
<!DOCTYPE svg PUBLIC "-//W3C//DTD SVG 20010904//EN"
 "http://www.w3.org/TR/2001/REC-SVG-20010904/DTD/svg10.dtd">
<svg version="1.0" xmlns="http://www.w3.org/2000/svg"
 width="1500.000000pt" height="500.000000pt" viewBox="0 0 1500.000000 500.000000"
 preserveAspectRatio="xMidYMid meet">

<g transform="translate(0.000000,500.000000) scale(0.100000,-0.100000)"
fill="#000000" stroke="none">
<path d="M4725 4845 c-501 -91 -1196 -528 -1773 -1114 -85 -86 -200 -209 -257
-273 -757 -854 -1085 -1727 -762 -2025 89 -82 180 -113 333 -113 345 0 819
212 1336 599 76 56 140 107 144 112 3 5 36 -18 72 -53 186 -175 501 -221 747
-108 104 48 102 42 54 140 -22 47 -42 87 -44 89 -2 2 -28 -10 -57 -27 -87 -50
-157 -65 -272 -60 -88 4 -110 9 -169 37 -38 18 -89 53 -115 77 l-46 44 75 66
c41 37 146 139 234 228 566 571 963 1180 1092 1676 31 117 42 300 23 392 -31
162 -135 271 -297 313 -69 18 -220 18 -318 0z m307 -249 c173 -85 60 -565
-250 -1058 -88 -142 -222 -332 -269 -385 l-38 -42 -55 15 c-41 11 -88 14 -185
11 -159 -5 -235 -27 -345 -102 -122 -83 -214 -217 -255 -370 -25 -93 -30 -246
-11 -335 l16 -75 -32 -28 c-62 -53 -253 -193 -373 -273 -445 -297 -879 -450
-1082 -383 -48 15 -90 70 -99 125 -73 489 600 1515 1461 2226 444 367 920 627
1265 691 61 12 215 1 252 -17z m-702 -1664 c0 -14 -291 -322 -396 -419 l-99
-92 -3 66 c-9 191 126 380 313 439 45 14 185 19 185 6z"/>
<path d="M6870 2858 l0 -362 -32 32 c-127 122 -393 110 -530 -25 -73 -71 -101
-145 -106 -273 -3 -88 0 -115 18 -169 38 -113 98 -182 200 -230 46 -21 70 -26
145 -26 107 0 168 18 249 75 l56 39 0 -49 0 -50 100 0 100 0 0 700 0 700 -100
0 -100 0 0 -362z m-107 -436 c33 -17 60 -43 79 -71 25 -41 28 -53 28 -137 0
-87 -2 -94 -32 -140 -86 -126 -269 -138 -371 -24 -123 137 -74 331 100 396 53
20 135 10 196 -24z"/>
<path d="M5298 2594 c-67 -20 -167 -91 -206 -146 -50 -71 -72 -143 -72 -241 0
-185 93 -322 256 -377 228 -77 456 6 548 200 29 61 31 72 31 180 0 104 -3 121
-27 172 -49 106 -142 185 -250 214 -68 18 -219 17 -280 -2z m228 -163 c49 -23
107 -88 122 -140 36 -118 -13 -252 -108 -301 -27 -14 -59 -20 -103 -20 -56 0
-71 4 -113 33 -119 80 -141 257 -45 368 42 50 101 79 161 79 25 0 63 -9 86
-19z"/>
<path d="M7754 2592 c-113 -40 -200 -117 -252 -222 -25 -50 -27 -65 -27 -170
0 -104 3 -121 27 -172 90 -193 329 -278 551 -194 114 43 112 38 60 122 l-44
73 -52 -24 c-73 -34 -125 -40 -190 -21 -57 17 -127 70 -111 85 5 5 131 50 279
100 149 50 275 93 282 96 14 5 -7 86 -39 149 -31 60 -105 133 -167 163 -48 24
-70 28 -161 31 -81 2 -116 -2 -156 -16z m181 -143 c32 -8 56 -24 85 -56 23
-24 40 -49 37 -56 -3 -10 -366 -147 -391 -147 -13 0 3 99 23 146 22 48 75 94
128 111 49 15 65 15 118 2z"/>
</g>
</svg>
